<svg xmlns="http://www.w3.org/2000/svg" width="27.231" height="27.231" viewBox="0 0 27.231 27.231">
  <path id="_5279111_network_fb_social_media_facebook_facebook_logo_icon" data-name="5279111_network_fb_social media_facebook_facebook logo_icon" d="M13.564,27.231h0Zm.1,0h0Zm-.138,0h0Zm.182,0h0Zm-.222,0h0Zm.266,0h0Zm.044,0h0Zm-.361,0h0Zm.4,0h0Zm-.447,0h0Zm.491,0h0Zm-.531,0h0Zm-.05,0h0Zm.625,0h0Zm-.668,0h0Zm.712,0h0Zm.044,0h0Zm-.8,0h0Zm-.038,0h0Zm.878,0h0Zm.044,0h0Zm-.977,0h0Zm-.04,0h0Zm1.061,0h0Zm-1.1,0h0Zm1.143,0h0Zm-1.2,0h0Zm1.242,0h0Zm-1.281,0h0Zm1.324,0h0Zm-1.363,0h0Zm1.407,0h0Zm.044,0h0Zm-1.485,0h0Zm1.529,0h0Zm-1.587,0h0Zm-.038,0h0Zm1.669,0h0Zm-1.706,0h0Zm1.749,0h0Zm.043,0h0Zm-1.848,0h0Zm-.038,0h0Zm1.93,0h0Zm-1.968,0h0Zm2.012,0h0Zm-2.063,0h0Zm2.106,0h0Zm.043,0h0Zm-2.189,0h0Zm-.039,0h0Zm2.271,0h0Zm-2.313,0h0Zm2.356,0h0Zm.043,0h0Zm-2.445,0h0Zm-.04,0h0Zm2.528,0h0Zm-3.39-.108a13.616,13.616,0,1,1,4.255,0V17.551h3.173l.6-3.936H15.743V11.062a1.968,1.968,0,0,1,2.219-2.126h1.717V5.585a20.938,20.938,0,0,0-3.048-.266c-3.11,0-5.143,1.885-5.143,5.3v3H8.031v3.936h3.457Z" transform="translate(0 0)" fill="#fff" fill-rule="evenodd"/>
</svg>
