<svg xmlns="http://www.w3.org/2000/svg" width="27.231" height="27.231" viewBox="0 0 27.231 27.231">
  <path id="_317712_code_repository_github_repository_resource_icon" data-name="317712_code repository_github_repository_resource_icon" d="M13.623,0A13.791,13.791,0,0,0,.008,13.96,13.936,13.936,0,0,0,9.32,27.207c.681.127.9-.286.9-.656,0-.332.007-1.258,0-2.423-3.787.844-4.572-1.839-4.572-1.839a3.673,3.673,0,0,0-1.511-2.042c-1.236-.866.093-.849.093-.849a2.871,2.871,0,0,1,2.086,1.439A2.86,2.86,0,0,0,10.273,22a3.016,3.016,0,0,1,.866-1.867c-3.023-.353-6.2-1.55-6.2-6.9a5.47,5.47,0,0,1,1.4-3.746,5.129,5.129,0,0,1,.134-3.695s1.143-.375,3.744,1.432a12.611,12.611,0,0,1,6.818,0c2.6-1.806,3.742-1.432,3.742-1.432a5.138,5.138,0,0,1,.135,3.695,5.469,5.469,0,0,1,1.4,3.746c0,5.364-3.183,6.543-6.217,6.888a3.346,3.346,0,0,1,.932,2.572v3.864c0,.374.22.786.911.651a13.937,13.937,0,0,0,9.3-13.245A13.792,13.792,0,0,0,13.623,0Z" transform="translate(-0.008)" fill="#fff" fill-rule="evenodd"/>
</svg>
