<svg xmlns="http://www.w3.org/2000/svg" width="27.23" height="27.23" viewBox="0 0 27.23 27.23">
  <path id="_5279112_camera_instagram_social_media_instagram_logo_icon" data-name="5279112_camera_instagram_social media_instagram logo_icon" d="M13.615,0A13.615,13.615,0,1,1,0,13.615,13.621,13.621,0,0,1,13.615,0Zm0,5.106c-2.311,0-2.6.01-3.508.051a6.247,6.247,0,0,0-2.066.4A4.351,4.351,0,0,0,5.552,8.041a6.247,6.247,0,0,0-.4,2.066c-.041.908-.051,1.2-.051,3.508s.01,2.6.051,3.508a6.247,6.247,0,0,0,.4,2.066,4.351,4.351,0,0,0,2.489,2.489,6.248,6.248,0,0,0,2.066.4c.908.041,1.2.051,3.508.051s2.6-.01,3.508-.051a6.247,6.247,0,0,0,2.066-.4,4.351,4.351,0,0,0,2.489-2.489,6.247,6.247,0,0,0,.4-2.066c.041-.908.051-1.2.051-3.508s-.01-2.6-.051-3.508a6.247,6.247,0,0,0-.4-2.066,4.351,4.351,0,0,0-2.489-2.489,6.246,6.246,0,0,0-2.066-.4C16.216,5.115,15.926,5.106,13.615,5.106Zm0,1.533c2.272,0,2.541.009,3.439.05a4.709,4.709,0,0,1,1.58.293A2.818,2.818,0,0,1,20.249,8.6a4.707,4.707,0,0,1,.293,1.58c.041.9.05,1.166.05,3.439s-.009,2.541-.05,3.439a4.707,4.707,0,0,1-.293,1.58,2.818,2.818,0,0,1-1.615,1.615,4.707,4.707,0,0,1-1.58.293c-.9.041-1.166.05-3.439.05s-2.541-.009-3.439-.05a4.707,4.707,0,0,1-1.58-.293,2.818,2.818,0,0,1-1.615-1.615,4.708,4.708,0,0,1-.293-1.58c-.041-.9-.05-1.166-.05-3.439s.009-2.541.05-3.439A4.708,4.708,0,0,1,6.981,8.6,2.818,2.818,0,0,1,8.6,6.981a4.709,4.709,0,0,1,1.58-.293c.9-.041,1.166-.05,3.439-.05Zm0,2.606a4.37,4.37,0,1,0,4.37,4.37,4.37,4.37,0,0,0-4.37-4.37Zm0,7.206a2.836,2.836,0,1,1,2.836-2.836A2.836,2.836,0,0,1,13.615,16.451Zm5.563-7.379a1.021,1.021,0,1,1-1.021-1.021A1.021,1.021,0,0,1,19.178,9.073Z" fill="#fff" fill-rule="evenodd"/>
</svg>
