<svg xmlns="http://www.w3.org/2000/svg" width="27.237" height="27.237" viewBox="0 0 27.237 27.237">
  <path id="_5279114_linkedin_network_social_network_linkedin_logo_icon" data-name="5279114_linkedin_network_social network_linkedin logo_icon" d="M13.618,0A13.618,13.618,0,1,1,0,13.618,13.625,13.625,0,0,1,13.618,0ZM9.361,21.272V10.637H5.825V21.272Zm12.747,0v-6.1c0-3.267-1.744-4.786-4.07-4.786a3.511,3.511,0,0,0-3.186,1.756V10.637H11.317c.047,1,0,10.635,0,10.635h3.535V15.332a2.417,2.417,0,0,1,.117-.863,1.935,1.935,0,0,1,1.814-1.293c1.279,0,1.791.976,1.791,2.4v5.69ZM7.617,5.508A1.843,1.843,0,1,0,7.57,9.184h.023a1.843,1.843,0,1,0,.024-3.675Z" fill="#fff" fill-rule="evenodd"/>
</svg>
