<svg xmlns="http://www.w3.org/2000/svg" width="27.23" height="27.23" viewBox="0 0 27.23 27.23">
  <path id="_104461_twitter_icon" data-name="104461_twitter_icon" d="M17.339,5.157A13.615,13.615,0,1,0,30.953,18.773,13.616,13.616,0,0,0,17.339,5.157ZM24.2,16.027c.007.147.01.295.01.444A9.759,9.759,0,0,1,9.185,24.693,7.017,7.017,0,0,0,10,24.74a6.884,6.884,0,0,0,4.261-1.469,3.436,3.436,0,0,1-3.2-2.384,3.351,3.351,0,0,0,.645.061,3.41,3.41,0,0,0,.9-.12,3.434,3.434,0,0,1-2.753-3.364c0-.015,0-.029,0-.044a3.419,3.419,0,0,0,1.554.43,3.436,3.436,0,0,1-1.062-4.581,9.741,9.741,0,0,0,7.073,3.585,3.433,3.433,0,0,1,5.847-3.13,6.853,6.853,0,0,0,2.179-.833,3.441,3.441,0,0,1-1.509,1.9,6.86,6.86,0,0,0,1.971-.54A6.932,6.932,0,0,1,24.2,16.027Z" transform="translate(-3.723 -5.157)" fill="#fff"/>
</svg>
